<?xml version="1.0" encoding="UTF-8"?>
<svg width="150px" height="149px" viewBox="0 0 150 149" version="1.1" xmlns="http://www.w3.org/2000/svg" xmlns:xlink="http://www.w3.org/1999/xlink">
    <!-- Generator: Sketch 47.1 (45422) - http://www.bohemiancoding.com/sketch -->
    <title>noun_242589_cc copy</title>
    <desc>Created with Sketch.</desc>
    <defs></defs>
    <g id="layouts" stroke="none" stroke-width="1" fill="none" fill-rule="evenodd">
        <g id="asssets" transform="translate(-290.000000, -285.000000)" fill-rule="nonzero" fill="#FFFFFF">
            <g id="noun_242589_cc-copy" transform="translate(290.000000, 285.000000)">
                <path d="M75.0002341,0 C33.7607462,0 0,33.5353916 0,74.4996041 C0,106.583864 20.7188148,133.916358 49.5118731,144.342983 C51.0609561,144.903942 52.6054922,145.483548 54.1993878,145.94356 C54.3957947,146.004184 54.5870453,146.029747 54.7853271,146.089067 C56.4760199,146.562284 58.1765565,147.043281 59.9122963,147.398631 C60.067453,147.432621 60.1963597,147.510939 60.3515164,147.544138 C62.617086,148.02785 65.018031,148.319818 67.3827884,148.562687 C69.0609655,148.73506 70.6578612,148.974809 72.3632727,148.999208 C72.6629136,149.006973 72.9612729,148.957578 73.2421817,148.853701 C73.2914006,148.854856 73.339682,148.852644 73.3884322,148.853701 C73.9320433,148.865342 74.4534824,148.999208 74.9997654,148.999208 C116.239254,148.999208 150,115.463817 150,74.4996041 C150,33.5353916 116.239254,1.28310482e-14 74.9997654,1.28310482e-14 L75.0002341,0 Z M75.0002341,4.65622524 C113.682871,4.65622524 145.312954,36.0751762 145.312954,74.4996041 C145.312954,112.286283 114.708265,143.178447 76.904537,144.197476 L78.5158701,141.723856 L78.6621206,141.432842 C87.9628059,135.753183 89.0641375,131.945099 90.9668466,128.046194 L104.003997,128.046194 C105.488392,128.046194 106.770474,127.480789 107.666118,126.591124 C108.561761,125.701459 109.277451,124.427935 109.277451,122.953448 L109.277451,120.625335 C111.899131,119.693192 113.964965,117.262083 113.964965,114.077519 C113.964965,111.251437 112.080631,108.544037 109.277451,107.529702 L109.277451,102.145942 C111.899131,101.213798 113.964965,98.7826895 113.964965,95.5981248 C113.964965,92.7720428 112.080631,90.0646434 109.277451,89.050308 L109.277451,83.5210405 C111.899131,82.5888968 113.964965,80.1577885 113.964965,76.9732238 C113.964965,74.1471418 112.080631,71.4397424 109.277451,70.425407 L109.277451,34.0486473 C109.277451,32.5741604 108.561761,31.4461433 107.666118,30.5564784 C106.770474,29.6668134 105.488392,28.9559009 104.003997,28.9559009 L53.4667293,28.9559009 C52.2427254,28.9559009 50.9616745,29.3730987 49.9510933,30.2654643 C48.940512,31.1577833 48.3397601,32.5353741 48.3397601,34.0486473 L48.3397601,79.1558294 C47.9281963,79.6999884 46.2146289,81.9458349 44.0917004,85.267125 C41.6956304,89.0157588 39.0222002,93.6016751 37.9393374,97.6352233 C34.6212333,109.406533 38.5268236,121.234323 39.1112161,122.953448 L34.5701862,131.392856 C16.5422392,118.716963 4.68728024,97.9906097 4.68728024,74.4996041 C4.68728024,36.0751762 36.3173636,4.65622524 74.9999997,4.65622524 L75.0002341,4.65622524 Z M53.4669636,33.6121262 L104.004231,33.6121262 C103.92595,33.6121262 104.138294,33.5986231 104.297201,33.7576332 C104.456108,33.9154792 104.59017,34.1264062 104.59017,34.0486473 L104.59017,69.9888859 L96.0940501,69.9888859 C94.1409034,69.9888859 92.5072576,70.7871026 91.2600506,72.0259844 C90.0128436,73.2648663 89.0627781,75.0331144 89.0627781,76.9732238 C89.0627781,80.543012 91.9794435,83.9575616 96.0940501,83.9575616 L104.59017,83.9575616 L104.59017,88.6137869 L96.0940501,88.6137869 C92.5002732,88.6137869 89.0627781,91.5109834 89.0627781,95.5981248 C89.0627781,99.167913 91.9794435,102.582463 96.0940501,102.582463 L104.59017,102.582463 L104.59017,107.093181 L96.0940501,107.093181 C94.1409034,107.093181 92.5072576,108.036905 91.2600506,109.275786 C90.0128436,110.514668 89.0627781,112.137409 89.0627781,114.077519 C89.0627781,117.647307 91.9794435,121.061857 96.0940501,121.061857 L104.59017,121.061857 L104.59017,122.953448 C104.59017,122.875689 104.456108,123.086616 104.297201,123.244462 C104.138294,123.402308 103.92595,123.389969 104.004231,123.389969 L89.5022326,123.389969 L74.8537493,123.389969 L74.8537493,111.167378 L87.5979298,95.0160966 C87.6610679,94.8757422 87.7100572,94.7295216 87.7441802,94.5795755 C89.5868891,90.9187581 87.9466809,86.8135505 84.9609684,84.3940828 C83.4680887,83.1843489 81.4150042,82.3213175 79.2480599,82.5024913 C77.0811156,82.6836184 74.9171714,83.906995 73.0956969,85.9946602 L56.5429108,106.220139 C56.5241607,106.229451 56.453848,106.304649 56.2499411,106.365646 C55.8421273,106.488104 55.199094,106.601483 54.7850928,106.511153 C54.3711852,106.421288 54.1475908,106.260182 53.7596989,105.63811 C53.3720415,105.015992 52.8807899,103.842623 52.8807899,101.563913 L52.8807899,81.629449 L53.0270404,81.629449 L53.0270404,34.0486473 C53.0270404,33.6994304 52.9848527,33.7967455 53.0270404,33.7576332 C53.069228,33.7203834 53.2843849,33.6121262 53.4662605,33.6121262 L53.4669636,33.6121262 Z M78.6623549,42.1970415 C74.3038569,42.1970415 70.752174,45.7250168 70.752174,50.0544216 C70.752174,54.3838264 74.3038569,57.9118017 78.6623549,57.9118017 C83.020853,57.9118017 86.5725359,54.3838264 86.5725359,50.0544216 C86.5725359,45.7250168 83.020853,42.1970415 78.6623549,42.1970415 Z M78.6623549,46.8532667 C80.4875325,46.8532667 81.8850213,48.2414271 81.8850213,50.0544216 C81.8850213,51.867416 80.4875325,53.2555764 78.6623549,53.2555764 C76.8371774,53.2555764 75.4396886,51.867416 75.4396886,50.0544216 C75.4396886,48.2414271 76.8371774,46.8532667 78.6623549,46.8532667 Z M96.0940501,74.6451112 L106.933928,74.6451112 C108.444339,74.6451112 109.277685,75.8867867 109.277685,76.9732238 C109.277685,78.4735527 108.027666,79.3013364 106.933928,79.3013364 L96.0940501,79.3013364 C94.5836391,79.3013364 93.7502928,78.0596608 93.7502928,76.9732238 C93.7502928,76.5853602 93.9720122,75.879849 94.4827169,75.3726463 C94.9933279,74.8654437 95.7034395,74.6451112 96.0940501,74.6451112 Z M79.6877488,87.1587165 C80.4797981,87.0925981 81.2978163,87.4371588 82.0315061,88.0317587 C83.4568856,89.186782 84.0659812,91.3560242 83.6428393,92.3969699 L70.752174,108.984772 C70.4231144,109.349247 70.2180868,109.80748 70.1662346,110.294336 L70.1662346,125.718082 C70.166364,127.00381 71.2156241,128.046066 72.509992,128.046194 L85.8401118,128.046194 C84.6852957,131.066315 83.6066985,133.438755 75.5861735,138.08618 C75.2904691,138.271404 75.0402183,138.519985 74.8537493,138.813715 L71.3381133,144.051969 C69.6281079,143.987387 68.0354311,143.841368 66.357629,143.615448 C54.6129672,142.033914 43.8690903,136.861756 38.8184808,133.284448 L43.6524803,124.554026 C43.9693539,123.972708 44.022525,123.284997 43.7987307,122.662434 C43.7987307,122.662434 39.4822797,109.580816 42.4803672,98.9447867 C42.4818933,98.8962962 42.4818933,98.8477701 42.4803672,98.7992796 C43.2725103,95.84849 45.7553462,91.3256656 48.0467904,87.7407447 C48.1077281,87.645292 48.1335094,87.6888277 48.1930409,87.5952376 L48.1930409,101.563913 C48.1930409,104.407051 48.639761,106.478513 49.6578892,108.11173 C50.6762518,109.744948 52.29846,110.704409 53.7594645,111.021871 C55.2204691,111.339425 56.569864,111.175759 57.5680702,110.876364 C58.0671499,110.726433 58.4929169,110.512247 58.8864337,110.294336 C59.0833093,110.18538 59.2304973,110.064085 59.472373,109.857815 C59.5529983,109.788902 59.6636236,109.681809 59.7653427,109.5668 L59.9115932,109.5668 C59.9397183,109.534207 59.8834681,109.461337 59.9115932,109.421293 L76.757349,89.050308 C77.9251495,87.7608595 78.9222776,87.2226465 79.6870457,87.1587165 L79.6877488,87.1587165 Z M96.0940501,93.2700121 L106.933928,93.2700121 C108.444339,93.2700121 109.277685,94.5116877 109.277685,95.5981248 C109.277685,97.0985468 108.027712,97.9262374 106.933928,97.9262374 L96.0940501,97.9262374 C94.5836391,97.9262374 93.7502928,96.6845618 93.7502928,95.5981248 C93.7502928,94.0977959 95.0003123,93.2700121 96.0940501,93.2700121 Z M96.0940501,111.749406 L106.933928,111.749406 C108.444339,111.749406 109.277685,112.991082 109.277685,114.077519 C109.277685,115.577848 108.027666,116.405631 106.933928,116.405631 L96.0940501,116.405631 C94.5836391,116.405631 93.7502928,115.163956 93.7502928,114.077519 C93.7502928,113.689655 93.9720122,112.984144 94.4827169,112.476941 C94.9933279,111.969739 95.7034395,111.749406 96.0940501,111.749406 Z" id="Shape"></path>
            </g>
        </g>
    </g>
</svg>