<?xml version="1.0" encoding="utf-8"?>
<!-- Generator: Adobe Illustrator 19.1.0, SVG Export Plug-In . SVG Version: 6.00 Build 0)  -->
<svg version="1.1" id="Layer_1" xmlns="http://www.w3.org/2000/svg" xmlns:xlink="http://www.w3.org/1999/xlink" x="0px" y="0px"
	 viewBox="0 0 533.1 83.1" style="enable-background:new 0 0 533.1 83.1;" xml:space="preserve">
<style type="text/css">
	.st0{fill:#F2F2F2;}
	.st1{fill:#7DCDD4;}
	.st2{fill:#EC3331;}
	.st3{fill:#FFFFFF;}
	.st4{fill:#FADFCD;}
	.st5{fill:#F1B996;}
	.st6{fill:#A07861;}
	.st7{fill:#5F3D25;}
	.st8{fill:#808083;}
	.st9{fill:#FCEF57;}
	.st10{fill:#F58832;}
	.st11{fill:#B41F59;}
	.st12{fill:#70246A;}
	.st13{fill:#ED5B9E;}
	.st14{fill:#BDBC32;}
	.st15{fill:#84B880;}
	.st16{fill:#00A95A;}
	.st17{fill:#0BBBCC;}
	.st18{fill:#0578BD;}
	.st19{fill:none;stroke:#000000;stroke-width:4;stroke-miterlimit:10;}
	.st20{fill:#999999;}
	.st21{fill:#CCCCCC;}
	.st22{fill:none;stroke:#999999;stroke-width:9;stroke-miterlimit:10;}
	.st23{fill:#808080;}
	.st24{clip-path:url(#SVGID_2_);fill:#FCEF57;}
	.st25{clip-path:url(#SVGID_2_);fill:#F58832;}
	.st26{clip-path:url(#SVGID_2_);fill:#EC3331;}
	.st27{clip-path:url(#SVGID_2_);fill:#7DCDD4;}
	.st28{clip-path:url(#SVGID_2_);fill:#0BBBCC;}
	.st29{clip-path:url(#SVGID_2_);fill:#0578BD;}
	.st30{clip-path:url(#SVGID_2_);fill:none;stroke:#FFFFFF;stroke-width:9;stroke-miterlimit:10;}
	.st31{clip-path:url(#SVGID_2_);}
	.st32{clip-path:url(#SVGID_4_);fill:#FCEF57;}
	.st33{clip-path:url(#SVGID_4_);fill:#F58832;}
	.st34{clip-path:url(#SVGID_4_);fill:#EC3331;}
	.st35{clip-path:url(#SVGID_4_);fill:#7DCDD4;}
	.st36{clip-path:url(#SVGID_4_);fill:#0BBBCC;}
	.st37{clip-path:url(#SVGID_4_);fill:#0578BD;}
	.st38{clip-path:url(#SVGID_4_);fill:none;stroke:#FFFFFF;stroke-width:9;stroke-miterlimit:10;}
	.st39{clip-path:url(#SVGID_4_);}
	.st40{clip-path:url(#SVGID_6_);fill:#FCEF57;}
	.st41{clip-path:url(#SVGID_6_);fill:#F58832;}
	.st42{clip-path:url(#SVGID_6_);fill:#EC3331;}
	.st43{clip-path:url(#SVGID_6_);fill:#7DCDD4;}
	.st44{clip-path:url(#SVGID_6_);fill:#0BBBCC;}
	.st45{clip-path:url(#SVGID_6_);fill:#0578BD;}
	.st46{clip-path:url(#SVGID_6_);fill:none;stroke:#FFFFFF;stroke-width:9;stroke-miterlimit:10;}
	.st47{clip-path:url(#SVGID_6_);}
	.st48{opacity:0.85;}
	.st49{fill:#FF0000;}
	.st50{fill:none;stroke:#999999;stroke-width:2;stroke-miterlimit:10;}
	.st51{fill:none;stroke:#000000;stroke-miterlimit:10;}
</style>
<g>
	<path class="st3" d="M518.1,26.3c0-4.1,3.3-7.5,7.5-7.5c4.1,0,7.5,3.4,7.5,7.5c0,4.2-3.4,7.6-7.5,7.6
		C521.4,33.9,518.1,30.5,518.1,26.3 M531.1,26.3c0-3.3-2.3-5.7-5.5-5.7c-3.3,0-5.5,2.4-5.5,5.7c0,3.4,2.3,5.8,5.5,5.8
		C528.8,32.1,531.1,29.7,531.1,26.3 M529.3,30.5h-1.9l-1.8-3.4h-1.3v3.4h-1.7v-8.2h3.9c2.1,0,3.1,0.6,3.1,2.5c0,1.5-0.8,2.1-2.2,2.2
		L529.3,30.5z M526.4,25.8c0.9,0,1.5-0.2,1.5-1.2c0-1.1-1.2-1-2-1h-1.8v2.2H526.4z"/>
	<polygon class="st3" points="47.9,11.4 30.6,11.4 30.6,67 17.3,67 17.3,11.4 0,11.4 0,0 47.9,0 	"/>
	<path class="st3" d="M65.6,23.8c4-3.4,9-6,14.3-6c5.2,0,12.6,3.2,12.6,15.1V67H79.7V38c0-3.9,0.3-10-5.2-10c-3.7,0-6.6,2.7-9,5.2
		V67H52.9V0h12.7V23.8"/>
	<path class="st3" d="M97.6,42.9c0-12.8,7-25.1,21-25.1c14,0,21,12.3,21,25.1c0,12.7-7.1,25.1-21,25.1C104.7,68,97.6,55.6,97.6,42.9
		 M126.7,42.9c0-6-1.2-15.7-8-15.7c-6.8,0-8,9.7-8,15.7c0,6,1.2,15.7,8,15.7C125.5,58.6,126.7,48.9,126.7,42.9"/>
	<path class="st3" d="M172.1,62c-4,3.4-9,6-14.3,6c-5.2,0-12.6-3.2-12.6-15.1V18.8h12.7v29c0,3.9-0.3,10,5.2,10c3.7,0,6.6-2.7,9-5.2
		V18.8h12.7V67h-12.7V62"/>
	<path class="st3" d="M205.4,51.1c-1.4,0-3.6,0.8-3.6,3c0,6.3,33.2-4.7,33.2,14.2c0,7.2-4.8,14.7-23.8,14.7
		c-16.5,0-22.2-5.8-22.2-12.1c0-3.7,2.3-5.6,5.2-7.3c-2.1-1.6-3.8-3.4-3.8-6.1c0-4.7,2.6-7.2,6.2-9.6c-3.5-3.4-6-7.8-6-13.3
		c0-10.7,9-16.9,19.3-16.9c4.2,0,8.2,1.2,11.8,3.4c2.6-2.4,4.9-4,8.6-4c1.2,0,2.5,0.1,3.7,0.3v9c-1.3-0.5-2.7-1-4-1
		c-1.4,0-2.2,0.4-3.4,1c1.4,2.6,2.5,5.4,2.6,8.2c0,10.7-8.9,16.9-19.2,16.9L205.4,51.1 M201.4,67.1c-1.2,0.8-2,1.5-2,3
		c0,4.5,9,4.7,12,4.7c2.1,0,13.3-0.2,13.3-4.1c0-2.5-1.7-2.2-9.2-2.7L201.4,67.1z M210.1,43c5.3,0,6.8-4.4,6.8-9
		c0-4.4-2-8.1-6.8-8.1c-5.3,0-6.9,4.5-6.9,9C203.2,39.4,205.2,43,210.1,43"/>
	<path class="st3" d="M252.3,23.8c4-3.4,9-6,14.3-6c5.2,0,12.6,3.2,12.6,15.1V67h-12.7V38c0-3.9,0.3-10-5.2-10c-3.7,0-6.6,2.7-9,5.2
		V67h-12.7V0h12.7V23.8"/>
	<path class="st3" d="M302.2,18.8h9.8v10.6h-9.8v24.5c0,2.3,0.7,4.7,4.8,4.7c2.1,0,3.5-0.9,5-1.8v9.7c-2.6,0.8-5.4,1.5-8.1,1.5
		c-7.9,0-14.3-4.5-14.3-15V29.4h-5.9V18.8h5.9v-12h12.6V18.8"/>
	<polygon class="st3" points="364.7,67 357.8,67 346.5,12.2 346.4,12.2 334.5,67 327.6,67 313.7,0 320.4,0 331.3,54.1 331.5,54.1 
		343.5,0 350,0 361.4,54.1 361.6,54.1 373.3,0 379.9,0 	"/>
	<path class="st3" d="M377,43.2c0-17.8,8.4-25.1,18.9-25.1c10.5,0,18.9,7.3,18.9,25.1c0,17.8-8.4,25.1-18.9,25.1
		C385.3,68.3,377,61,377,43.2 M408.1,43.2c0-8.1-2-19.5-12.2-19.5c-10.3,0-12.2,11.4-12.2,19.5c0,8.1,2,19.5,12.2,19.5
		C406.1,62.7,408.1,51.3,408.1,43.2"/>
	<path class="st3" d="M426.6,29.7h0.2c2.6-5.7,6.1-10.9,13.1-10.9h2.6v6.1c-8.7-1.2-13.3,8.3-15.8,15.2V67H420V19.5h6.7V29.7"/>
	<polygon class="st3" points="454.5,41.5 472,19.5 479.5,19.5 466.5,35.7 481.4,67 474.2,67 462.2,41.2 454.5,50.7 454.5,67 
		447.8,67 447.8,0 454.5,0 	"/>
	<path class="st3" d="M510.3,30c-2.6-4-5.8-6.3-10.8-6.3c-4.4,0-8.5,2.2-8.5,7.1c0,11.6,24.9,6.5,24.9,22.6c0,9.3-6.6,15-15.5,15
		c-7.6,0-13.8-3.4-17.6-10l5.3-3.4c2.6,4.9,6.7,7.7,12.3,7.7c4.9,0,9.2-2.7,9.2-8.1c0-12-24.9-6.3-24.9-23.3
		c0-8.2,6.7-13.2,14.4-13.2c6.6,0,12.1,2.7,15.7,8.3L510.3,30"/>
</g>
</svg>
