<?xml version="1.0" encoding="utf-8"?>
<!-- Generator: Adobe Illustrator 21.1.0, SVG Export Plug-In . SVG Version: 6.00 Build 0)  -->
<svg width="218px" height="27px" version="1.1" id="Layer_1" xmlns="http://www.w3.org/2000/svg" xmlns:xlink="http://www.w3.org/1999/xlink" x="0px" y="0px"
	 viewBox="0 0 216.5 26.2" style="enable-background:new 0 0 216.5 26.2;" xml:space="preserve">
<style type="text/css">
	.st0{clip-path:url(#SVGID_2_);}
	.st1{clip-path:url(#SVGID_4_);fill:#6A55A4;}
	.st2{opacity:0.2;fill:none;stroke:#FFFFFF;stroke-width:4;stroke-miterlimit:10;}
	.st3{fill:#FFFFFF;}
</style>
<g>
	<defs>
		<path id="SVGID_1_" d="M204.4,11.7h1c1.9,0,2.9-0.9,2.9-2.6c0-1.4-1-2.1-2.9-2.1h-1.1V11.7z M204.4,15.9v7.4h-5.6V2.9h6.7
			c5.6,0,8.4,2,8.4,6c0,2.4-1.2,4.2-3.5,5.5l6,8.9h-6.3l-4.4-7.4H204.4z M197.1,23.3h-12.2V2.9h12.2v4.4h-6.6v3.2h6.2V15h-6.2v3.9
			h6.6V23.3z M178.7,23.3h-5.6V7.4h-5V2.9h15.6v4.5h-5V23.3z M167.9,23.3h-12.2V2.9h12.2v4.4h-6.6v3.2h6.2V15h-6.2v3.9h6.6V23.3z
			 M138.6,23.3l-4.2-14.7h-0.1c0.2,2.5,0.3,4.5,0.3,5.8v8.9h-4.9V2.9h7.4l4.3,14.5h0.1l4.2-14.5h7.4v20.5h-5.1v-9c0-0.5,0-1,0-1.6
			c0-0.6,0.1-2,0.2-4.2H148l-4.1,14.7H138.6z M82.3,12.9c0-1.9-0.4-3.3-1.1-4.2c-0.7-0.9-1.9-1.4-3.4-1.4h-1.6v11.5h1.2
			c1.7,0,2.9-0.5,3.7-1.5C81.9,16.3,82.3,14.9,82.3,12.9z M88,12.7c0,3.4-0.9,6-2.8,7.9c-1.9,1.8-4.5,2.8-8,2.8h-6.6V2.9h7.1
			c3.3,0,5.8,0.8,7.6,2.5C87.1,7.1,88,9.5,88,12.7z M67.9,23.3h-7.3L53.2,8.9H53c0.2,2.3,0.3,4,0.3,5.2v9.2h-4.9V2.9h7.3l7.5,14.2
			h0.1c-0.1-2.1-0.2-3.7-0.2-5V2.9h4.9V23.3z M46.6,23.3H34.4V2.9h12.2v4.4h-6.6v3.2h6.2V15h-6.2v3.9h6.6V23.3z M22.3,11.7h1
			c1.9,0,2.9-0.9,2.9-2.6c0-1.4-1-2.1-2.9-2.1h-1.1V11.7z M22.3,15.9v7.4h-5.6V2.9h6.7c5.6,0,8.4,2,8.4,6c0,2.4-1.2,4.2-3.5,5.5
			l6,8.9H28l-4.4-7.4H22.3z M10.6,23.3H5V7.4H0V2.9h15.6v4.5h-5V23.3z"/>
	</defs>
	<clipPath id="SVGID_2_">
		<use xlink:href="#SVGID_1_"  style="overflow:visible;"/>
	</clipPath>
	<g class="st0">
		<defs>
			<rect id="SVGID_3_" x="-21.8" y="-7.3" width="259" height="39.2"/>
		</defs>
		<clipPath id="SVGID_4_">
			<use xlink:href="#SVGID_3_"  style="overflow:visible;"/>
		</clipPath>
		<rect x="-5" y="-2.1" class="st1" width="226.5" height="30.5"/>
	</g>
</g>
<circle class="st2" cx="108.1" cy="13.1" r="11"/>
<g>
	<path class="st3" d="M108.1,26.2v-4c5,0,9.1-4.1,9.1-9.1S113.1,4,108.1,4V0c7.2,0,13.1,5.9,13.1,13.1S115.3,26.2,108.1,26.2z"/>
</g>
</svg>
