<?xml version="1.0" encoding="UTF-8"?>
<svg width="120px" height="19px" viewBox="0 0 120 19" version="1.1" xmlns="http://www.w3.org/2000/svg" xmlns:xlink="http://www.w3.org/1999/xlink">
    <!-- Generator: Sketch 47.1 (45422) - http://www.bohemiancoding.com/sketch -->
    <title>White TW Logo</title>
    <desc>Created with Sketch.</desc>
    <defs></defs>
    <g id="layouts" stroke="none" stroke-width="1" fill="none" fill-rule="evenodd">
        <g id="cartela_02" transform="translate(-452.000000, -632.000000)" fill="#FFFFFE">
            <g id="White-TW-Logo" transform="translate(452.000000, 632.000000)">
                <g>
                    <path d="M118.447554,5.92057813 C118.652978,5.925625 118.795642,5.8769375 118.795642,5.64775 C118.795642,5.39421875 118.532978,5.41410938 118.35661,5.41410938 L117.946344,5.41410938 L117.946344,5.92057813 L118.447554,5.92057813 Z M119.091138,6.98873437 L118.652978,6.98873437 L118.24707,6.2035 L117.946344,6.2035 L117.946344,6.98873437 L117.564262,6.98873437 L117.564262,5.12584375 L118.442324,5.12584375 C118.92,5.12584375 119.148668,5.25765625 119.148668,5.6964375 C119.148668,6.03784375 118.972591,6.17915625 118.652978,6.2035 L119.091138,6.98873437 Z M119.496755,6.04734375 C119.496755,5.28170312 118.976949,4.73575 118.256077,4.73575 C117.52155,4.73575 117.0154,5.28170312 117.0154,6.04734375 C117.0154,6.82278125 117.52155,7.3636875 118.256077,7.3636875 C118.976949,7.3636875 119.496755,6.82278125 119.496755,6.04734375 Z M116.57201,6.04734375 C116.57201,5.1015 117.321646,4.33140625 118.256077,4.33140625 C119.181792,4.33140625 119.941017,5.1015 119.941017,6.04734375 C119.941017,7.00328125 119.181792,7.77396875 118.256077,7.77396875 C117.321646,7.77396875 116.57201,7.00328125 116.57201,6.04734375 L116.57201,6.04734375 Z" id="Fill-1"></path>
                    <polyline id="Fill-2" points="10.7703632 2.6303125 6.88532688 2.6303125 6.88532688 15.3249844 3.88503632 15.3249844 3.88503632 2.6303125 0 2.6303125 0 0.03621875 10.7703632 0.03621875 10.7703632 2.6303125"></polyline>
                    <path d="M14.7515738,5.460125 C15.6560775,4.69359375 16.7715254,4.08410937 17.9639709,4.08410937 C19.1372397,4.08410937 20.7913801,4.81175 20.7913801,7.52340625 L20.7913801,15.3249844 L17.9450847,15.3249844 L17.9450847,8.70289063 C17.9450847,7.81820313 18.002615,6.42259375 16.7715254,6.42259375 C15.9446005,6.42259375 15.2908475,7.032375 14.7515738,7.62167188 L14.7515738,15.3249844 L11.905569,15.3249844 L11.905569,0.03621875 L14.7515738,0.03621875 L14.7515738,5.460125" id="Fill-3"></path>
                    <path d="M28.5042131,9.82270313 C28.5042131,8.4466875 28.2345763,6.22635937 26.6957869,6.22635937 C25.1569976,6.22635937 24.8879419,8.4466875 24.8879419,9.82270313 C24.8879419,11.198125 25.1569976,13.41875 26.6957869,13.41875 C28.2345763,13.41875 28.5042131,11.198125 28.5042131,9.82270313 Z M21.9646489,9.82270313 C21.9646489,6.89432813 23.5415012,4.08410937 26.6957869,4.08410937 C29.8503632,4.08410937 31.4272155,6.89432813 31.4272155,9.82270313 C31.4272155,12.7308906 29.8308959,15.561 26.6957869,15.561 C23.560678,15.561 21.9646489,12.7308906 21.9646489,9.82270313 L21.9646489,9.82270313 Z" id="Fill-4"></path>
                    <path d="M38.7169976,14.1855781 C37.8127845,14.9515156 36.697046,15.561 35.504891,15.561 C34.3319128,15.561 32.6771913,14.8336562 32.6771913,12.122 L32.6771913,4.31982812 L35.5234867,4.31982812 L35.5234867,10.9428125 C35.5234867,11.8269062 35.466247,13.2225156 36.697046,13.2225156 C37.5242615,13.2225156 38.1780145,12.6130312 38.7169976,12.0234375 L38.7169976,4.31982812 L41.563293,4.31982812 L41.563293,15.3249844 L38.7169976,15.3249844 L38.7169976,14.1855781" id="Fill-5"></path>
                    <path d="M47.2756416,9.8621875 C48.4680872,9.8621875 48.814431,8.8599375 48.814431,7.81820313 C48.814431,6.81595313 48.3527361,5.97045313 47.2756416,5.97045313 C46.0829056,5.97045313 45.717385,6.99289063 45.717385,8.03492188 C45.717385,9.03657813 46.1790799,9.8621875 47.2756416,9.8621875 Z M45.3135109,15.344875 C45.0441646,15.5218125 44.8709927,15.6785625 44.8709927,16.0327344 C44.8709927,17.0542813 46.8906538,17.1136563 47.5638741,17.1136563 C48.0444552,17.1136563 50.5452785,17.0542813 50.5452785,16.1701875 C50.5452785,15.6004844 50.1608717,15.6589688 48.4680872,15.561 L45.3135109,15.344875 Z M46.217724,11.7090469 C45.8902663,11.7090469 45.4099758,11.8862812 45.4099758,12.3972031 C45.4099758,13.832 52.8723487,11.335875 52.8723487,15.639375 C52.8723487,17.271 51.7949637,19 47.5255206,19 C43.8136562,19 42.5439225,17.6637656 42.5439225,16.2292656 C42.5439225,15.3837656 43.0631477,14.9515156 43.7174818,14.5584531 C43.2554964,14.2045781 42.8716707,13.7919219 42.8716707,13.1634375 C42.8716707,12.0825156 43.4484262,11.5131094 44.2750605,10.9624063 C43.4861985,10.1762813 42.9289104,9.193625 42.9289104,7.9360625 C42.9289104,5.49901563 44.9485714,4.08410938 47.2756416,4.08410938 C48.2176271,4.08410938 49.1221308,4.3593125 49.9298789,4.85064063 C50.5066344,4.30023438 51.0258596,3.94665625 51.8725424,3.94665625 C52.1413075,3.94665625 52.4301211,3.96625 52.6997579,4.02532813 L52.6997579,6.06901563 C52.4109443,5.95115625 52.1032446,5.83329688 51.7949637,5.83329688 C51.487845,5.83329688 51.2954964,5.9315625 51.0258596,6.06901563 C51.3332688,6.65860938 51.5840194,7.30728125 51.602615,7.9360625 C51.602615,10.3728125 49.6024213,11.7877187 47.2756416,11.7877187 L46.217724,11.7090469 L46.217724,11.7090469 Z" id="Fill-6"></path>
                    <path d="M56.7768523,5.460125 C57.6804843,4.69359375 58.7959322,4.08410937 59.9886683,4.08410937 C61.1628087,4.08410937 62.8160775,4.81175 62.8160775,7.52340625 L62.8160775,15.3249844 L59.9697821,15.3249844 L59.9697821,8.70289063 C59.9697821,7.81820313 60.0278935,6.42259375 58.7959322,6.42259375 C57.9690073,6.42259375 57.3155448,7.032375 56.7768523,7.62167188 L56.7768523,15.3249844 L53.9299758,15.3249844 L53.9299758,0.03621875 L56.7768523,0.03621875 L56.7768523,5.460125" id="Fill-7"></path>
                    <path d="M67.9900242,4.31982813 L70.2023245,4.31982813 L70.2023245,6.73757813 L67.9900242,6.73757813 L67.9900242,12.3384219 C67.9900242,12.8689375 68.1437288,13.41875 69.0668281,13.41875 C69.5476998,13.41875 69.8553995,13.2225156 70.2023245,13.0063906 L70.2023245,15.2267187 C69.60523,15.4039531 68.9901211,15.561 68.374431,15.561 C66.60523,15.561 65.1437288,14.5391563 65.1437288,12.1415938 L65.1437288,6.73757813 L63.8161743,6.73757813 L63.8161743,4.31982813 L65.1437288,4.31982813 L65.1437288,1.56928125 L67.9900242,1.56928125 L67.9900242,4.31982813" id="Fill-8"></path>
                    <polyline id="Fill-9" points="82.0494915 15.3249844 80.5104116 15.3249844 77.971816 2.82654688 77.933753 2.82654688 75.2594673 15.3249844 73.7212591 15.3249844 70.5864407 0.03621875 72.0860048 0.03621875 74.5484746 12.3770156 74.5871186 12.3770156 77.2794189 0.03621875 78.760678 0.03621875 81.3181598 12.3770156 81.3570944 12.3770156 83.9924455 0.03621875 85.4731235 0.03621875 82.0494915 15.3249844"></polyline>
                    <path d="M91.8191768,9.90107812 C91.8191768,8.05392188 91.3781114,5.460125 89.0693462,5.460125 C86.7620339,5.460125 86.3186441,8.05392188 86.3186441,9.90107812 C86.3186441,11.7485312 86.7620339,14.342625 89.0693462,14.342625 C91.3781114,14.342625 91.8191768,11.7485312 91.8191768,9.90107812 Z M84.8182082,9.90107812 C84.8182082,5.83329688 86.7039225,4.16307813 89.0693462,4.16307813 C91.4350605,4.16307813 93.3201937,5.83329688 93.3201937,9.90107812 C93.3201937,13.9691562 91.4350605,15.639375 89.0693462,15.639375 C86.7039225,15.639375 84.8182082,13.9691562 84.8182082,9.90107812 L84.8182082,9.90107812 Z" id="Fill-10"></path>
                    <path d="M95.9927361,6.81595312 L96.0319613,6.81595312 C96.628184,5.51890625 97.3978692,4.31982812 98.9747215,4.31982812 L99.5517676,4.31982812 L99.5517676,5.71514062 C97.5899274,5.4399375 96.5703632,7.60178125 95.9927361,9.17432813 L95.9927361,15.3249844 L94.4934625,15.3249844 L94.4934625,4.47746875 L95.9927361,4.47746875 L95.9927361,6.81595312" id="Fill-11"></path>
                    <polyline id="Fill-12" points="102.263245 9.5083125 106.206102 4.47746875 107.879709 4.47746875 104.956416 8.19107813 108.321356 15.3249844 106.706441 15.3249844 103.993801 9.42934375 102.263245 11.6110781 102.263245 15.3249844 100.763099 15.3249844 100.763099 0.03621875 102.263245 0.03621875 102.263245 9.5083125"></polyline>
                    <path d="M114.822857,6.89432812 C114.226634,5.99034375 113.514479,5.460125 112.399031,5.460125 C111.418692,5.460125 110.495303,5.97045312 110.495303,7.0715625 C110.495303,9.72414063 116.092881,8.56514062 116.092881,12.2202656 C116.092881,14.342625 114.611332,15.639375 112.610557,15.639375 C110.898886,15.639375 109.514092,14.8731406 108.649395,13.3602656 L109.840969,12.5937344 C110.418015,13.7138437 111.341404,14.342625 112.610557,14.342625 C113.707119,14.342625 114.687748,13.7337344 114.687748,12.4951719 C114.687748,9.76392187 109.091622,11.0606719 109.091622,7.16953125 C109.091622,5.30278125 110.592058,4.16307813 112.342082,4.16307813 C113.823051,4.16307813 115.052978,4.7915625 115.880484,6.04971875 L114.822857,6.89432812" id="Fill-13"></path>
                </g>
            </g>
        </g>
    </g>
</svg>