<?xml version="1.0" encoding="UTF-8"?>
<svg width="218px" height="27px" viewBox="0 0 218 27" version="1.1" xmlns="http://www.w3.org/2000/svg" xmlns:xlink="http://www.w3.org/1999/xlink">
    <!-- Generator: Sketch 47.1 (45422) - http://www.bohemiancoding.com/sketch -->
    <title>Group</title>
    <desc>Created with Sketch.</desc>
    <defs></defs>
    <g id="layouts" stroke="none" stroke-width="1" fill="none" fill-rule="evenodd">
        <g id="cartela_02" transform="translate(-404.000000, -54.000000)">
            <g id="Group" transform="translate(383.000000, 46.000000)">
                <g id="logo-trend" transform="translate(0.000000, -0.100000)" fill="#6953AE">
                    <path d="M32.3679742,30.6428571 L26.8175727,30.6428571 L26.8175727,14.70739 L21.8011339,14.70739 L21.8011339,10.1883769 L37.3703613,10.1883769 L37.3703613,14.70739 L32.3679742,14.70739 L32.3679742,30.6428571 Z M44.0589464,23.1997768 L44.0589464,30.6428571 L38.5085449,30.6428571 L38.5085449,10.1883769 L45.2392849,10.1883769 C50.8225015,10.1883769 53.6140679,12.2030251 53.6140679,16.232382 C53.6140679,18.6014946 52.4524765,20.4342649 50.1292589,21.7307478 L56.1152615,30.6428571 L49.8201226,30.6428571 L45.4641113,23.1997768 L44.0589464,23.1997768 Z M44.0589464,19.0445233 L45.0987684,19.0445233 C47.0379057,19.0445233 48.0074599,18.1910959 48.0074599,16.4842156 C48.0074599,15.0758061 47.0566411,14.3716119 45.154975,14.3716119 L44.0589464,14.3716119 L44.0589464,19.0445233 Z M68.3823513,30.6428571 L56.1855197,30.6428571 L56.1855197,10.1883769 L68.3823513,10.1883769 L68.3823513,14.6234455 L61.7359212,14.6234455 L61.7359212,17.8413186 L67.8905436,17.8413186 L67.8905436,22.2763871 L61.7359212,22.2763871 L61.7359212,26.1378348 L68.3823513,26.1378348 L68.3823513,30.6428571 Z M89.7408583,30.6428571 L82.4621039,30.6428571 L74.9585232,16.232382 L74.8320584,16.232382 C75.0100468,18.4988953 75.0990397,20.2290677 75.0990397,21.4229512 L75.0990397,30.6428571 L70.1809625,30.6428571 L70.1809625,10.1883769 L77.4316135,10.1883769 L84.9070909,24.4029815 L84.9914008,24.4029815 C84.8602514,22.341667 84.7946777,20.6861112 84.7946777,19.4362643 L84.7946777,10.1883769 L89.7408583,10.1883769 L89.7408583,30.6428571 Z M109.820665,19.9819037 C109.820665,23.3956644 108.876872,26.0258996 106.989258,27.8726881 C105.101643,29.7194767 102.44825,30.6428571 99.0289985,30.6428571 L92.3825684,30.6428571 L92.3825684,10.1883769 L99.4927029,10.1883769 C102.790173,10.1883769 105.335838,11.0278137 107.129774,12.7067124 C108.923711,14.3856111 109.820665,16.8106506 109.820665,19.9819037 Z M104.059489,20.1777742 C104.059489,18.303004 103.687124,16.9132698 102.942383,16.00853 C102.197642,15.1037901 101.066495,14.651427 99.5489095,14.651427 L97.9329698,14.651427 L97.9329698,26.1098533 L99.169515,26.1098533 C100.855721,26.1098533 102.092254,25.6225136 102.87915,24.6478197 C103.666047,23.6731257 104.059489,22.1831255 104.059489,20.1777742 Z M160.392551,30.6428571 L156.191108,15.9105947 L156.064643,15.9105947 C156.261367,18.4196155 156.359728,20.3689742 156.359728,21.7587293 L156.359728,30.6428571 L151.44165,30.6428571 L151.44165,10.1883769 L158.832818,10.1883769 L163.118571,24.7107781 L163.230984,24.7107781 L167.432427,10.1883769 L174.837646,10.1883769 L174.837646,30.6428571 L169.736898,30.6428571 L169.736898,21.6747848 C169.736898,21.208424 169.743924,20.6907713 169.757975,20.1218112 C169.772027,19.5528511 169.835259,18.1584534 169.947673,15.9385762 L169.821208,15.9385762 L165.675971,30.6428571 L160.392551,30.6428571 Z M189.662137,30.6428571 L177.465305,30.6428571 L177.465305,10.1883769 L189.662137,10.1883769 L189.662137,14.6234455 L183.015706,14.6234455 L183.015706,17.8413186 L189.170329,17.8413186 L189.170329,22.2763871 L183.015706,22.2763871 L183.015706,26.1378348 L189.662137,26.1378348 L189.662137,30.6428571 Z M200.524061,30.6428571 L194.97366,30.6428571 L194.97366,14.70739 L189.957221,14.70739 L189.957221,10.1883769 L205.526449,10.1883769 L205.526449,14.70739 L200.524061,14.70739 L200.524061,30.6428571 Z M218.861464,30.6428571 L206.664632,30.6428571 L206.664632,10.1883769 L218.861464,10.1883769 L218.861464,14.6234455 L212.215034,14.6234455 L212.215034,17.8413186 L218.369656,17.8413186 L218.369656,22.2763871 L212.215034,22.2763871 L212.215034,26.1378348 L218.861464,26.1378348 L218.861464,30.6428571 Z M226.210476,23.1997768 L226.210476,30.6428571 L220.660075,30.6428571 L220.660075,10.1883769 L227.390815,10.1883769 C232.974031,10.1883769 235.765598,12.2030251 235.765598,16.232382 C235.765598,18.6014946 234.604006,20.4342649 232.280789,21.7307478 L238.266791,30.6428571 L231.971653,30.6428571 L227.615641,23.1997768 L226.210476,23.1997768 Z M226.210476,19.0445233 L227.250298,19.0445233 C229.189436,19.0445233 230.15899,18.1910959 230.15899,16.4842156 C230.15899,15.0758061 229.208171,14.3716119 227.306505,14.3716119 L226.210476,14.3716119 L226.210476,19.0445233 Z" id="TREND-METER"></path>
                </g>
                <ellipse id="Oval-2-Copy-2" stroke="#FFFFFF" stroke-width="4.2" opacity="0.200000003" cx="129.5" cy="21.4897959" rx="11.0898148" ry="11.0326531"></ellipse>
                <path d="M146.984037,25.9561224 C145.998423,20.8686175 141.499431,17.0234694 136.094907,17.0234694 C130.690384,17.0234694 126.191392,20.8686175 125.205778,25.9561224 L146.984037,25.9561224 Z" id="Oval-2-Copy-2" stroke="#FFFFFF" stroke-width="4.2" transform="translate(136.094907, 21.489796) rotate(-270.000000) translate(-136.094907, -21.489796) "></path>
            </g>
        </g>
    </g>
</svg>